<mxfile host="app.diagrams.net" agent="Mozilla/5.0 (Windows NT 10.0; Win64; x64; rv:140.0) Gecko/20100101 Firefox/140.0" version="27.2.0">
  <diagram name="Page-1" id="j_lB4L7Boy8PEsyJPyKu">
    <mxGraphModel dx="1247" dy="938" grid="1" gridSize="10" guides="1" tooltips="1" connect="1" arrows="1" fold="1" page="1" pageScale="1" pageWidth="850" pageHeight="1100" math="0" shadow="0">
      <root>
        <mxCell id="0" />
        <mxCell id="1" parent="0" />
        <mxCell id="4weC092-0cH67PwdwhHu-2" value="&lt;div&gt;Maszyna atakująca&lt;/div&gt;&lt;div&gt;Kali Linux&lt;/div&gt;" style="rounded=0;whiteSpace=wrap;html=1;fillColor=#1ba1e2;fontColor=#ffffff;strokeColor=#006EAF;verticalAlign=top;" vertex="1" parent="1">
          <mxGeometry x="60" y="190" width="140" height="210" as="geometry" />
        </mxCell>
        <mxCell id="4weC092-0cH67PwdwhHu-3" value="Hydra" style="rounded=0;whiteSpace=wrap;html=1;fillColor=#e51400;fontColor=#ffffff;strokeColor=#B20000;" vertex="1" parent="1">
          <mxGeometry x="70" y="240" width="120" height="60" as="geometry" />
        </mxCell>
        <mxCell id="4weC092-0cH67PwdwhHu-4" value="&lt;div&gt;logins.txt&lt;/div&gt;&lt;div&gt;passwords.txt&lt;/div&gt;" style="rounded=0;whiteSpace=wrap;html=1;fillColor=#e3c800;fontColor=#000000;strokeColor=#B09500;" vertex="1" parent="1">
          <mxGeometry x="70" y="320" width="120" height="60" as="geometry" />
        </mxCell>
        <mxCell id="4weC092-0cH67PwdwhHu-5" value="sieć" style="ellipse;whiteSpace=wrap;html=1;fillColor=#76608a;fontColor=#ffffff;strokeColor=#432D57;" vertex="1" parent="1">
          <mxGeometry x="330" y="200" width="120" height="200" as="geometry" />
        </mxCell>
        <mxCell id="4weC092-0cH67PwdwhHu-6" value="&lt;div&gt;System docelowy&lt;/div&gt;&lt;div&gt;(Ubuntu/Windows)&lt;/div&gt;" style="rounded=0;whiteSpace=wrap;html=1;fillColor=#f0a30a;fontColor=#000000;strokeColor=#BD7000;verticalAlign=top;" vertex="1" parent="1">
          <mxGeometry x="560" y="207.5" width="140" height="212.5" as="geometry" />
        </mxCell>
        <mxCell id="4weC092-0cH67PwdwhHu-7" value="&lt;div&gt;Aplikacja webowa&lt;/div&gt;" style="rounded=0;whiteSpace=wrap;html=1;fillColor=#6d8764;fontColor=#ffffff;strokeColor=#3A5431;" vertex="1" parent="1">
          <mxGeometry x="570" y="257.5" width="120" height="60" as="geometry" />
        </mxCell>
        <mxCell id="4weC092-0cH67PwdwhHu-10" style="edgeStyle=orthogonalEdgeStyle;rounded=0;orthogonalLoop=1;jettySize=auto;html=1;exitX=1;exitY=0.25;exitDx=0;exitDy=0;entryX=0.021;entryY=0.162;entryDx=0;entryDy=0;entryPerimeter=0;" edge="1" parent="1" source="4weC092-0cH67PwdwhHu-2" target="4weC092-0cH67PwdwhHu-6">
          <mxGeometry relative="1" as="geometry" />
        </mxCell>
        <mxCell id="4weC092-0cH67PwdwhHu-11" value="&lt;div&gt;HTTP POST z próbami logowania&lt;/div&gt;" style="edgeLabel;html=1;align=center;verticalAlign=middle;resizable=0;points=[];" vertex="1" connectable="0" parent="4weC092-0cH67PwdwhHu-10">
          <mxGeometry x="-0.3618" y="4" relative="1" as="geometry">
            <mxPoint y="1" as="offset" />
          </mxGeometry>
        </mxCell>
        <mxCell id="4weC092-0cH67PwdwhHu-12" style="edgeStyle=orthogonalEdgeStyle;rounded=0;orthogonalLoop=1;jettySize=auto;html=1;exitX=0;exitY=0.75;exitDx=0;exitDy=0;entryX=1;entryY=0.843;entryDx=0;entryDy=0;entryPerimeter=0;" edge="1" parent="1" source="4weC092-0cH67PwdwhHu-6" target="4weC092-0cH67PwdwhHu-2">
          <mxGeometry relative="1" as="geometry" />
        </mxCell>
        <mxCell id="4weC092-0cH67PwdwhHu-13" value="&lt;div&gt;Odpowiedź: sukces/niepowodzenie&lt;/div&gt;" style="edgeLabel;html=1;align=center;verticalAlign=middle;resizable=0;points=[];" vertex="1" connectable="0" parent="4weC092-0cH67PwdwhHu-12">
          <mxGeometry x="0.4113" y="3" relative="1" as="geometry">
            <mxPoint as="offset" />
          </mxGeometry>
        </mxCell>
      </root>
    </mxGraphModel>
  </diagram>
</mxfile>
